<mxfile host="app.diagrams.net" modified="2023-07-24T14:56:21.093Z" agent="Mozilla/5.0 (X11; Linux x86_64) AppleWebKit/537.36 (KHTML, like Gecko) Chrome/115.0.0.0 Safari/537.36" etag="WI4jxX8GMjSHYQlFPvj2" version="21.6.5" type="google">
  <diagram name="Page-1" id="SFV0DPMBpy5tl9tK5UpT">
    <mxGraphModel grid="1" page="1" gridSize="10" guides="1" tooltips="1" connect="1" arrows="1" fold="1" pageScale="1" pageWidth="827" pageHeight="1169" math="0" shadow="0">
      <root>
        <mxCell id="0" />
        <mxCell id="1" parent="0" />
        <mxCell id="awBEOhFoFF5UymR4_-2E-4" style="edgeStyle=orthogonalEdgeStyle;rounded=0;orthogonalLoop=1;jettySize=auto;html=1;entryX=0.513;entryY=1;entryDx=0;entryDy=0;entryPerimeter=0;" edge="1" parent="1" source="krKL_mxPOFj_XPniPA5U-5" target="krKL_mxPOFj_XPniPA5U-27">
          <mxGeometry relative="1" as="geometry">
            <Array as="points">
              <mxPoint x="250" y="216" />
            </Array>
          </mxGeometry>
        </mxCell>
        <mxCell id="krKL_mxPOFj_XPniPA5U-5" value="Workflow Dev Mode" style="rounded=0;whiteSpace=wrap;html=1;fillColor=#dae8fc;strokeColor=#6c8ebf;" vertex="1" parent="1">
          <mxGeometry x="190" y="110" width="120" height="60" as="geometry" />
        </mxCell>
        <mxCell id="krKL_mxPOFj_XPniPA5U-9" value="Job Service" style="rounded=0;whiteSpace=wrap;html=1;fillColor=#d5e8d4;strokeColor=#82b366;" vertex="1" parent="1">
          <mxGeometry x="294" y="310" width="120" height="60" as="geometry" />
        </mxCell>
        <mxCell id="krKL_mxPOFj_XPniPA5U-11" value="" style="endArrow=classic;html=1;rounded=0;exitX=0.308;exitY=-0.008;exitDx=0;exitDy=0;entryX=0.988;entryY=1.1;entryDx=0;entryDy=0;entryPerimeter=0;exitPerimeter=0;" edge="1" parent="1" source="krKL_mxPOFj_XPniPA5U-9" target="krKL_mxPOFj_XPniPA5U-27">
          <mxGeometry width="50" height="50" relative="1" as="geometry">
            <mxPoint x="320" y="300" as="sourcePoint" />
            <mxPoint x="296" y="246" as="targetPoint" />
          </mxGeometry>
        </mxCell>
        <mxCell id="krKL_mxPOFj_XPniPA5U-17" value="" style="whiteSpace=wrap;html=1;aspect=fixed;fillColor=#ffe6cc;strokeColor=#d79b00;dashed=1;dashPattern=8 8;" vertex="1" parent="1">
          <mxGeometry x="400" y="150" width="130" height="130" as="geometry" />
        </mxCell>
        <mxCell id="krKL_mxPOFj_XPniPA5U-19" value="" style="rounded=0;whiteSpace=wrap;html=1;fillColor=#ffe6cc;strokeColor=#d79b00;dashed=1;dashPattern=8 8;" vertex="1" parent="1">
          <mxGeometry x="430" y="220" width="100" height="60" as="geometry" />
        </mxCell>
        <mxCell id="krKL_mxPOFj_XPniPA5U-21" value="" style="rounded=0;whiteSpace=wrap;html=1;direction=west;fillColor=#ffe6cc;strokeColor=#d79b00;dashed=1;dashPattern=8 8;" vertex="1" parent="1">
          <mxGeometry x="400" y="150" width="30" height="130" as="geometry" />
        </mxCell>
        <mxCell id="krKL_mxPOFj_XPniPA5U-23" value="" style="rounded=0;whiteSpace=wrap;html=1;fillColor=#ffe6cc;strokeColor=#d79b00;dashed=1;dashPattern=8 8;" vertex="1" parent="1">
          <mxGeometry x="430" y="150" width="30" height="70" as="geometry" />
        </mxCell>
        <mxCell id="krKL_mxPOFj_XPniPA5U-25" value="" style="rounded=0;whiteSpace=wrap;html=1;fillColor=#ffe6cc;strokeColor=#d79b00;dashed=1;dashPattern=8 8;" vertex="1" parent="1">
          <mxGeometry x="460" y="190" width="70" height="30" as="geometry" />
        </mxCell>
        <mxCell id="krKL_mxPOFj_XPniPA5U-26" value="" style="rounded=0;whiteSpace=wrap;html=1;fillColor=#ffe6cc;strokeColor=#d79b00;dashed=1;dashPattern=8 8;" vertex="1" parent="1">
          <mxGeometry x="460" y="150" width="70" height="40" as="geometry" />
        </mxCell>
        <mxCell id="krKL_mxPOFj_XPniPA5U-27" value="Data Index" style="text;html=1;align=center;verticalAlign=middle;resizable=0;points=[];autosize=1;rotation=90;dashed=1;dashPattern=8 8;" vertex="1" parent="1">
          <mxGeometry x="375" y="200" width="80" height="30" as="geometry" />
        </mxCell>
        <mxCell id="krKL_mxPOFj_XPniPA5U-28" value="GraphQL" style="text;html=1;align=center;verticalAlign=middle;resizable=0;points=[];autosize=1;rotation=90;dashed=1;dashPattern=8 8;" vertex="1" parent="1">
          <mxGeometry x="410" y="170" width="70" height="30" as="geometry" />
        </mxCell>
        <mxCell id="krKL_mxPOFj_XPniPA5U-29" value="&lt;font style=&quot;font-size: 11px;&quot;&gt;Gateway API&lt;/font&gt;" style="text;html=1;align=center;verticalAlign=middle;resizable=0;points=[];autosize=1;dashed=1;dashPattern=8 8;" vertex="1" parent="1">
          <mxGeometry x="450" y="155" width="90" height="30" as="geometry" />
        </mxCell>
        <mxCell id="krKL_mxPOFj_XPniPA5U-30" value="&lt;font style=&quot;font-size: 11px;&quot;&gt;Queries&lt;/font&gt;" style="text;html=1;align=center;verticalAlign=middle;resizable=0;points=[];autosize=1;dashed=1;dashPattern=8 8;" vertex="1" parent="1">
          <mxGeometry x="465" y="190" width="60" height="30" as="geometry" />
        </mxCell>
        <mxCell id="krKL_mxPOFj_XPniPA5U-31" value="Data&lt;br&gt;Indexation" style="text;html=1;align=center;verticalAlign=middle;resizable=0;points=[];autosize=1;strokeColor=none;fillColor=none;dashed=1;dashPattern=8 8;" vertex="1" parent="1">
          <mxGeometry x="440" y="230" width="80" height="40" as="geometry" />
        </mxCell>
        <mxCell id="krKL_mxPOFj_XPniPA5U-32" value="Ephemeral&lt;br&gt;DB" style="shape=cylinder3;whiteSpace=wrap;html=1;boundedLbl=1;backgroundOutline=1;size=15;fillColor=#dae8fc;strokeColor=#6c8ebf;" vertex="1" parent="1">
          <mxGeometry x="590" y="170" width="90" height="80" as="geometry" />
        </mxCell>
        <mxCell id="krKL_mxPOFj_XPniPA5U-33" value="" style="shape=flexArrow;endArrow=classic;html=1;rounded=0;width=3.2;endSize=3.4;endWidth=7.68;fillColor=#ffe6cc;strokeColor=#d79b00;entryX=0.5;entryY=0;entryDx=0;entryDy=0;" edge="1" parent="1" target="krKL_mxPOFj_XPniPA5U-5">
          <mxGeometry width="50" height="50" relative="1" as="geometry">
            <mxPoint x="470" y="150" as="sourcePoint" />
            <mxPoint x="140" y="90" as="targetPoint" />
            <Array as="points">
              <mxPoint x="470" y="60" />
              <mxPoint x="300" y="60" />
              <mxPoint x="250" y="60" />
            </Array>
          </mxGeometry>
        </mxCell>
        <mxCell id="krKL_mxPOFj_XPniPA5U-39" value="" style="shape=flexArrow;endArrow=classic;html=1;rounded=0;width=3.2;endSize=3.4;endWidth=7.68;fillColor=#ffe6cc;strokeColor=#d79b00;entryX=1;entryY=0.5;entryDx=0;entryDy=0;" edge="1" parent="1" target="krKL_mxPOFj_XPniPA5U-9">
          <mxGeometry width="50" height="50" relative="1" as="geometry">
            <mxPoint x="500" y="150" as="sourcePoint" />
            <mxPoint x="80" y="300" as="targetPoint" />
            <Array as="points">
              <mxPoint x="500" y="110" />
              <mxPoint x="570" y="110" />
              <mxPoint x="700" y="110" />
              <mxPoint x="700" y="230" />
              <mxPoint x="700" y="340" />
            </Array>
          </mxGeometry>
        </mxCell>
        <mxCell id="awBEOhFoFF5UymR4_-2E-5" value="Events" style="text;html=1;align=center;verticalAlign=middle;resizable=0;points=[];autosize=1;strokeColor=none;fillColor=none;" vertex="1" parent="1">
          <mxGeometry x="330" y="230" width="60" height="30" as="geometry" />
        </mxCell>
        <mxCell id="awBEOhFoFF5UymR4_-2E-6" value="" style="shape=flexArrow;endArrow=classic;startArrow=classic;html=1;rounded=0;width=6;startSize=4.33;startWidth=10;endWidth=10;endSize=4.33;fillColor=#dae8fc;strokeColor=#6c8ebf;" edge="1" parent="1">
          <mxGeometry width="100" height="100" relative="1" as="geometry">
            <mxPoint x="280" y="340" as="sourcePoint" />
            <mxPoint x="210" y="180" as="targetPoint" />
            <Array as="points">
              <mxPoint x="210" y="340" />
            </Array>
          </mxGeometry>
        </mxCell>
        <mxCell id="1HRkr9WzJAVZMg4DeUF9-1" value="" style="shape=flexArrow;endArrow=classic;html=1;rounded=0;endWidth=7.5;endSize=4.835;width=5;fillColor=#ffe6cc;strokeColor=#d79b00;" edge="1" parent="1">
          <mxGeometry width="50" height="50" relative="1" as="geometry">
            <mxPoint x="540" y="227.38" as="sourcePoint" />
            <mxPoint x="580" y="227.38" as="targetPoint" />
            <Array as="points">
              <mxPoint x="540" y="227.38" />
            </Array>
          </mxGeometry>
        </mxCell>
        <mxCell id="1HRkr9WzJAVZMg4DeUF9-2" value="" style="shape=flexArrow;endArrow=classic;html=1;rounded=0;endWidth=6;endSize=4.335;width=6;fillColor=#ffe6cc;strokeColor=#d79b00;" edge="1" parent="1">
          <mxGeometry width="50" height="50" relative="1" as="geometry">
            <mxPoint x="580" y="202.13" as="sourcePoint" />
            <mxPoint x="540" y="202.13" as="targetPoint" />
            <Array as="points" />
          </mxGeometry>
        </mxCell>
      </root>
    </mxGraphModel>
  </diagram>
</mxfile>
